{
  "title": "Pitbull Ft. Ke$ha - Timber [Music Video] 1080p [Sbyky]",
  "uid": 9261409,
  "size": 89937552,
  "categoryP": "video",
  "categoryS": "music_videos",
  "magnet": "?xt=urn:btih:d632fb831ebbf96111c7681db8809ee1f901a3eb&amp;dn=Pitbull+Ft.+Ke%24ha+-+Timber+%5BMusic+Video%5D+1080p+%5BSbyky%5D&amp;tr=udp%3A%2F%2Ftracker.openbittorrent.com%3A80&amp;tr=udp%3A%2F%2Fopen.demonii.com%3A1337&amp;tr=udp%3A%2F%2Ftracker.coppersurfer.tk%3A6969&amp;tr=udp%3A%2F%2Fexodus.desync.com%3A6969",
  "seeders": 48,
  "leechers": 2,
  "uploader": "Sbyky",
  "files": 1,
  "time": 1385628493,
  "description": "[IMG]http://cdn.piczend.com/images/Mm0px3vd/1385609234_timber.jpg[/IMG]\n\nGeneral\nComplete name                            : Pitbull Ft. Ke$ha - Timber [Music Video] 1080p [Sbyky].MP4\nFormat                                   : MPEG-4\nFormat profile                           : Base Media\nCodec ID                                 : isom\nFile size                                : 85.8 MiB\nDuration                                 : 3mn 34s\nOverall bit rate mode                    : Variable\nOverall bit rate                         : 3 361 Kbps\nEncoded date                             : UTC 2013-11-25 04:08:36\nTagged date                              : UTC 2013-11-25 04:08:36\n\nVideo\nID                                       : 1\nFormat                                   : AVC\nFormat/Info                              : Advanced Video Codec\nFormat profile                           : &lt;a class=&quot;__cf_email__&quot; href=&quot;/cdn-cgi/l/email-protection&quot; data-cfemail=&quot;763e1f111e363a425846&quot;&gt;[email&amp;#160;protected]&lt;/a&gt;&lt;script cf-hash='f9e31' type=&quot;text/javascript&quot;&gt;\n/* &lt;![CDATA[ */!function(){try{var t=&quot;currentScript&quot;in document?document.currentScript:function(){for(var t=document.getElementsByTagName(&quot;script&quot;),e=t.length;e--;)if(t[e].getAttribute(&quot;cf-hash&quot;))return t[e]}();if(t&amp;&amp;t.previousSibling){var e,r,n,i,c=t.previousSibling,a=c.getAttribute(&quot;data-cfemail&quot;);if(a){for(e=&quot;&quot;,r=parseInt(a.substr(0,2),16),n=2;a.length-n;n+=2)i=parseInt(a.substr(n,2),16)^r,e+=String.fromCharCode(i);e=document.createTextNode(e),c.parentNode.replaceChild(e,c)}}}catch(u){}}();/* ]]&gt; */&lt;/script&gt;\nFormat settings, CABAC                   : Yes\nFormat settings, ReFrames                : 3 frames\nCodec ID                                 : avc1\nCodec ID/Info                            : Advanced Video Coding\nDuration                                 : 3mn 33s\nBit rate                                 : 3 105 Kbps\nWidth                                    : 1 920 pixels\nHeight                                   : 1 080 pixels\nDisplay aspect ratio                     : 16:9\nFrame rate mode                          : Variable\nFrame rate                               : 23.976 fps\nMinimum frame rate                       : 23.974 fps\nMaximum frame rate                       : 4 090.909 fps\nColor space                              : YUV\nChroma subsampling                       : 4:2:0\nBit depth                                : 8 bits\nScan type                                : Progressive\nBits/(Pixel*Frame)                       : 0.062\nStream size                              : 79.2 MiB (92%)\nEncoded date                             : UTC 2013-11-25 04:08:36\nTagged date                              : UTC 2013-11-25 04:08:36\n\nAudio\nID                                       : 2\nFormat                                   : AAC\nFormat/Info                              : Advanced Audio Codec\nFormat profile                           : LC\nCodec ID                                 : 40\nDuration                                 : 3mn 34s\nBit rate mode                            : Variable\nBit rate                                 : 254 Kbps\nChannel(s)                               : 2 channels\nChannel positions                        : Front: L R\nSampling rate                            : 44.1 KHz\nCompression mode                         : Lossy\nDelay relative to video                  : 42ms\nStream size                              : 6.47 MiB (8%)\nEncoded date                             : UTC 2013-11-25 04:07:04\nTagged date                              : UTC 2013-11-25 04:07:04\n\nShared By Sbyky\n[IMG]http://cdn.piczend.com/images/X3Ag13N3/1379453786_saythanks.gif[/IMG]\n[IMG]http://cdn.piczend.com/images/gGqhX2S8/1379453780_keepseeding.gif[/IMG]",
  "parsed": {
    "xt": "urn:btih:d632fb831ebbf96111c7681db8809ee1f901a3eb",
    "dn": "Pitbull Ft. Ke$ha - Timber [Music Video] 1080p [Sbyky]",
    "tr": [
      "udp://exodus.desync.com:6969",
      "udp://open.demonii.com:1337",
      "udp://tracker.coppersurfer.tk:6969",
      "udp://tracker.openbittorrent.com:80"
    ],
    "infoHash": "d632fb831ebbf96111c7681db8809ee1f901a3eb",
    "infoHashBuffer": {
      "type": "Buffer",
      "data": [
        214,
        50,
        251,
        131,
        30,
        187,
        249,
        97,
        17,
        199,
        104,
        29,
        184,
        128,
        158,
        225,
        249,
        1,
        163,
        235
      ]
    },
    "name": "Pitbull Ft. Ke$ha - Timber [Music Video] 1080p [Sbyky]",
    "announce": [
      "udp://exodus.desync.com:6969",
      "udp://open.demonii.com:1337",
      "udp://tracker.coppersurfer.tk:6969",
      "udp://tracker.openbittorrent.com:80"
    ],
    "urlList": []
  },
  "previous": 0,
  "peers": 6,
  "last_updated": "2016-12-27T14:19:44.738Z"
}